<svg width="1062" height="1072" viewBox="0 0 1062 1072" fill="none" xmlns="http://www.w3.org/2000/svg">
<path d="M585.787 2.65306C664.324 12.6454 736.165 50.3559 801.147 95.6379C864.445 139.746 921.308 194.051 957.955 261.995C993.629 328.137 992.162 405.493 1007.91 478.992C1025.15 559.445 1080.56 639.592 1055.68 718.014C1030.86 796.208 936.873 826.605 879.14 884.824C821.361 943.089 790.813 1035.08 713.664 1062.91C636.542 1090.72 553.286 1047.33 472.879 1031.36C398.002 1016.49 319.26 1012.57 254.718 971.758C190.281 931.007 150.234 863.538 107.543 800.319C63.8867 735.672 7.33094 673.184 0.589122 595.437C-6.13196 517.928 46.3704 449.802 70.7422 375.928C95.457 301.015 95.4438 215.205 145.997 154.691C197.308 93.27 276.982 64.6978 352.574 38.5651C427.864 12.5371 506.772 -7.40012 585.787 2.65306Z" fill="url(#paint0_linear_2713_7512)"/>
<defs>
<linearGradient id="paint0_linear_2713_7512" x1="531" y1="0" x2="531" y2="1072" gradientUnits="userSpaceOnUse">
<stop stop-color="#0ECD88"/>
<stop offset="1" stop-color="#0ECD88"/>
</linearGradient>
</defs>
</svg>
